# xmcd
#
# Track frame offsets: 
#        150
#        13498
#        25598
#        40624
#        56411
#        69892
#        82396
#        96965
#        114135
#        132143
#        150255
#        163159
#
# Disc length: 2354 seconds
#
# Revision: 0
# Processed by: cddbd v1.5.2PL0 Copyright (c) Steve Scherf et al.
# Submitted via: ExactAudioCopy v0.99pb4
#
DISCID=8c09300c
DTITLE=Ashleigh Caudill - I'm Not Fallin
DYEAR=2008
DGENRE=Bluegrass
TTITLE0=Life's Too Short
TTITLE1=Gospel Plow
TTITLE2=Arizona
TTITLE3=Red Wing
TTITLE4=Miner's Grave
TTITLE5=Hello Stranger
TTITLE6=I'm Not Fallin
TTITLE7=Caleb Meyer
TTITLE8=Travelin Down This Lonesome Road
TTITLE9=The One I Love Is Gone
TTITLE10=Gone
TTITLE11=Harvest Moon
EXTD=
EXTT0=
EXTT1=
EXTT2=
EXTT3=
EXTT4=
EXTT5=
EXTT6=
EXTT7=
EXTT8=
EXTT9=
EXTT10=
EXTT11=
PLAYORDER=
